<svg width="46" height="46" viewBox="0 0 46 46" fill="none" xmlns="http://www.w3.org/2000/svg">
<path fill-rule="evenodd" clip-rule="evenodd" d="M31.625 8.62498V23.9583C31.625 28.1925 28.1926 31.625 23.9584 31.625H8.62504C4.39086 31.625 0.958374 28.1925 0.958374 23.9583V8.62498C0.958374 4.3908 4.39086 0.958313 8.62504 0.958313H23.9584C28.1926 0.958313 31.625 4.3908 31.625 8.62498ZM3.83337 8.62498V23.9583C3.83337 25.2291 4.33821 26.4479 5.23682 27.3465C6.13543 28.2451 7.35421 28.75 8.62504 28.75H23.9584C26.6047 28.75 28.75 26.6047 28.75 23.9583V8.62498C28.75 5.97862 26.6047 3.83331 23.9584 3.83331H8.62504C5.97868 3.83331 3.83337 5.97862 3.83337 8.62498Z" fill="white"/>
<path d="M37.375 12.9375C36.5854 12.9478 35.9479 13.5854 35.9375 14.375V29.7083C35.927 33.1442 33.1443 35.927 29.7084 35.9375H14.375C13.5811 35.9375 12.9375 36.5811 12.9375 37.375C12.9375 38.1689 13.5811 38.8125 14.375 38.8125H29.7084C34.7365 38.8125 38.8125 34.7364 38.8125 29.7083V14.375C38.8022 13.5854 38.1646 12.9478 37.375 12.9375Z" fill="white"/>
</svg>
