<svg width="100" height="56" viewBox="0 0 100 56" fill="none" xmlns="http://www.w3.org/2000/svg">
    <path
        d="M66.8333 5H57.0996C55.995 5 55.0996 5.89543 55.0996 7V47.9998C55.0996 49.1044 55.995 49.9998 57.0996 49.9998H66.8333C67.9379 49.9998 68.8333 49.1044 68.8333 47.9998V7C68.8333 5.89543 67.9379 5 66.8333 5Z"
        fill="#ACDD22" />
    <path
        d="M88.8328 32.8842H79.0991C77.9946 32.8842 77.0991 33.7796 77.0991 34.8842V47.9998C77.0991 49.1044 77.9946 49.9998 79.0991 49.9998H88.8328C89.9374 49.9998 90.8328 49.1044 90.8328 47.9998V34.8842C90.8328 33.7796 89.9374 32.8842 88.8328 32.8842Z"
        fill="#ACDD22" />
    <path
        d="M32.385 5.91563C32.0167 5.34482 31.3838 5 30.7045 5H15.482C15.4786 5 15.4754 5.00094 15.4726 5.0027V5.0027C15.4643 5.00791 15.4619 5.0189 15.4672 5.02713L42.6869 47.2108C43.5037 48.4767 45.3739 48.4192 46.1113 47.1055L51.5008 37.5053C51.8637 36.8589 51.8392 36.0648 51.4373 35.4419L32.385 5.91563Z"
        fill="#ACDD22" />
    <path
        d="M19.843 50.0001C25.8314 50.0001 30.686 45.1454 30.686 39.1568C30.686 33.1683 25.8314 28.3136 19.843 28.3136C13.8546 28.3136 9 33.1683 9 39.1568C9 45.1454 13.8546 50.0001 19.843 50.0001Z"
        fill="#ACDD22" />
    <path
        d="M83.865 26.23C87.6564 26.23 90.73 23.1564 90.73 19.365C90.73 15.5736 87.6564 12.5 83.865 12.5C80.0736 12.5 77 15.5736 77 19.365C77 23.1564 80.0736 26.23 83.865 26.23Z"
        fill="#001721" />
</svg>