<svg width="82" height="45" viewBox="0 0 82 45" fill="none" xmlns="http://www.w3.org/2000/svg">
    <path
        d="M57.8333 0H48.0996C46.995 0 46.0996 0.895433 46.0996 2V42.9998C46.0996 44.1044 46.995 44.9998 48.0996 44.9998H57.8333C58.9379 44.9998 59.8333 44.1044 59.8333 42.9998V2C59.8333 0.895431 58.9379 0 57.8333 0Z"
        fill="#ACDD22" />
    <path
        d="M79.8333 27.8842H70.0996C68.995 27.8842 68.0996 28.7796 68.0996 29.8842V42.9998C68.0996 44.1044 68.995 44.9998 70.0996 44.9998H79.8333C80.9379 44.9998 81.8333 44.1044 81.8333 42.9998V29.8842C81.8333 28.7796 80.9379 27.8842 79.8333 27.8842Z"
        fill="#ACDD22" />
    <path
        d="M23.3855 0.915626C23.0172 0.344823 22.3843 0 21.705 0H6.48245C6.47913 0 6.47589 0.000935396 6.47308 0.00269855V0.00269855C6.46479 0.00791345 6.46235 0.0189011 6.46766 0.0271349L33.6873 42.2108C34.5042 43.4767 36.3743 43.4192 37.1118 42.1055L42.5013 32.5053C42.8642 31.8589 42.8397 31.0648 42.4378 30.4419L23.3855 0.915626Z"
        fill="#ACDD22" />
    <path
        d="M10.843 45.0001C16.8314 45.0001 21.686 40.1454 21.686 34.1568C21.686 28.1683 16.8314 23.3136 10.843 23.3136C4.85457 23.3136 0 28.1683 0 34.1568C0 40.1454 4.85457 45.0001 10.843 45.0001Z"
        fill="#ACDD22" />
    <path
        d="M74.865 21.23C78.6564 21.23 81.73 18.1564 81.73 14.365C81.73 10.5736 78.6564 7.5 74.865 7.5C71.0736 7.5 68 10.5736 68 14.365C68 18.1564 71.0736 21.23 74.865 21.23Z"
        fill="white" />
</svg>