<?xml version="1.0" encoding="UTF-8"?>
<svg id="Layer_1" data-name="Layer 1" xmlns="http://www.w3.org/2000/svg" viewBox="0 0 3797.24 813.7">
  <defs>
    <style>
      .cls-1 {
        fill: #a8c52c;
      }

      .cls-2 {
        fill: #1a1a1a;
        stroke: #fff;
        stroke-miterlimit: 10;
      }
    </style>
  </defs>
  <g>
    <rect class="cls-1" x="809.95" y=".5" width="248.19" height="813.2"/>
    <rect class="cls-1" x="1184.37" y="504.4" width="248.19" height="309.3"/>
    <polygon class="cls-1" points="388.78 .5 93.9 .5 93.55 .72 618.15 813.7 618.15 813.7 755.57 568.92 388.78 .5"/>
    <circle class="cls-1" cx="195.95" cy="617.75" r="195.95"/>
    <circle class="cls-2" cx="1308.46" cy="196.45" r="195.95"/>
  </g>
  <g>
    <path class="cls-2" d="m1891.64,750.25c0,21.34-6.54,37.6-19.6,48.8-13.07,11.2-28.67,16.8-46.8,16.8s-32.94-5.6-46-16.8c-13.08-11.2-19.6-27.46-19.6-48.8v-338.4c0-25.6,4.53-44.12,13.6-55.6,9.06-11.46,25.6-17.2,49.6-17.2,21.86,0,38.52,3.47,50,10.4,11.46,6.94,22,16.54,31.6,28.8l87.2,111.2,86.4-112c9.06-11.72,19.33-21.06,30.8-28,11.46-6.92,26.52-10.4,45.2-10.4,24,0,40.8,5.74,50.4,17.2,9.6,11.48,14.4,30,14.4,55.6v338.4c0,21.34-6.54,37.6-19.6,48.8-13.08,11.2-28.67,16.8-46.8,16.8s-32.94-5.6-46-16.8c-13.08-11.2-19.6-27.46-19.6-48.8v-201.6l-59.2,78.4c-12.8,16-26.14,24-40,24s-27.47-8.26-39.2-24.8l-56.8-77.6v201.6Z"/>
    <path class="cls-2" d="m2485.24,750.25c0,21.34-6.54,37.6-19.6,48.8-13.07,11.2-28.4,16.8-46,16.8s-33.74-5.6-46.8-16.8c-13.08-11.2-19.6-27.46-19.6-48.8v-345.6c0-21.33,6.52-37.6,19.6-48.8,13.06-11.2,28.66-16.8,46.8-16.8s32.93,5.6,46,16.8c13.06,11.2,19.6,27.47,19.6,48.8v345.6Z"/>
    <path class="cls-2" d="m2785.24,647.85c-13.34-18.12-20-37.33-20-57.6,0-12.8,2.4-22.52,7.2-29.2,4.8-6.66,10.92-11.73,18.4-15.2,7.46-3.46,15.46-5.86,24-7.2,8.52-1.33,16.52-3.2,24-5.6,7.46-2.4,13.86-6,19.2-10.8,5.33-4.8,8.26-12.26,8.8-22.4,0-24-13.88-36-41.6-36h-71.2v284.8c0,45.34-22.14,68-66.4,68-22.4,0-39.07-5.72-50-17.2-10.94-11.46-16.4-27.86-16.4-49.2v-345.6c0-44.26,21.33-66.4,64-66.4h142.4c27.73,0,51.86,4.14,72.4,12.4,20.53,8.28,37.46,19.2,50.8,32.8,13.32,13.6,23.2,29.08,29.6,46.4,6.4,17.34,9.6,35.08,9.6,53.2,0,27.2-6.8,52.8-20.4,76.8-13.6,24-33.74,42.14-60.4,54.4l56.8,90.4c8.53,13.88,12.8,28,12.8,42.4,0,9.6-1.88,18.67-5.6,27.2-3.74,8.54-8.67,16-14.8,22.4-6.14,6.4-13.2,11.34-21.2,14.8-8,3.48-16.27,5.2-24.8,5.2-9.6,0-19.08-2.8-28.4-8.4-9.34-5.6-17.47-14.52-24.4-26.8l-74.4-133.6Z"/>
    <path class="cls-2" d="m3396.44,723.85h-141.6l-20,51.2c-5.88,14.94-14,25.74-24.4,32.4-10.4,6.67-21.74,10-34,10-9.08,0-17.74-1.46-26-4.4-8.28-2.93-15.88-7.2-22.8-12.8-6.94-5.6-12.4-12.12-16.4-19.6-4-7.46-6-16-6-25.6s1.86-18.4,5.6-26.4l157.6-348c6.92-14.92,16.26-26.12,28-33.6,11.72-7.46,23.72-11.2,36-11.2s24.12,3.74,35.6,11.2c11.46,7.47,20.12,18.67,26,33.6l144.8,348c3.72,8,5.6,16.8,5.6,26.4,0,9.07-2,17.47-6,25.2-4,7.74-9.47,14.4-16.4,20-6.94,5.6-14.67,9.88-23.2,12.8-8.54,2.94-17.08,4.4-25.6,4.4-12.27,0-23.74-3.33-34.4-10-10.68-6.66-18.68-17.46-24-32.4l-18.4-51.2Zm-100-104h64l-29.6-85.6-34.4,85.6Z"/>
    <path class="cls-2" d="m3797.24,750.25c0,21.34-6.54,37.6-19.6,48.8-13.08,11.2-28.4,16.8-46,16.8s-33.74-5.6-46.8-16.8c-13.07-11.2-19.6-27.46-19.6-48.8v-345.6c0-21.33,6.53-37.6,19.6-48.8,13.06-11.2,28.66-16.8,46.8-16.8s32.92,5.6,46,16.8c13.06,11.2,19.6,27.47,19.6,48.8v345.6Z"/>
  </g>
</svg>